<svg version="1.1" id="Layer_1" xmlns="http://www.w3.org/2000/svg" x="0" y="0" viewBox="0 0 841.89 1190.55" xml:space="preserve">
  <style>
    .st0{fill:#fff}.st1{fill:#054179}.st2{fill:#da613f}
  </style>
  <path class="st0" d="M727 991.55H115v-792h612v792zM276.47 555.83c.92.77.68 1.54.71 2.2.12 2.57.48 5.1 1.04 7.59 1.65 7.32 5.2 13.39 11.74 17.39 5.31 3.25 11.2 4.55 17.34 4.98.88.06 1.33-.11 1.32-1.13-.04-4.32-.03-8.64-.01-12.96 0-.86-.29-1.25-1.16-1.47-2.18-.56-3.89-1.86-5.05-3.79-1.73-2.88-2.28-6.05-2.38-9.55h37.09c3.89 0 3.89 0 3.85 3.95-.02 2.19-.02 2.2-2.25 2.19-5.44-.02-10.88-.03-16.32-.1-1.13-.02-1.71.23-1.96 1.48-.63 3.26-2.8 5.15-5.95 5.82-1.12.24-1.41.69-1.39 1.75.05 4.08.01 8.16.03 12.24.01 1.64.04 1.65 1.78 1.61 3.45-.07 6.87-.43 10.22-1.22 5.71-1.34 10.91-3.65 14.81-8.26.21-.25.45-.45 1.03-.18 0 2.35.04 4.81-.02 7.27-.02 1.07.21 1.6 1.44 1.58 3.6-.07 7.2-.06 10.8 0 1.04.02 1.59-.36 2.03-1.27 1.03-2.16 2.17-4.26 3.37-6.6 3.85 3.86 8.21 6.5 13.36 7.7.16-.32.28-.46.28-.6.02-5.44 0-10.88.05-16.32.01-1.01-.41-1.33-1.32-1.58-3-.83-4.77-2.95-5.3-5.92-1.01-5.63-1.01-11.31-.05-16.94.51-2.97 2.21-5.16 5.3-5.83 1.28-.28 1.38-1.01 1.37-2.06-.03-4.56-.01-9.12-.03-13.68 0-.6.19-1.25-.29-1.9-2.39.61-4.41 2.05-6.87 3.33v-2.16c0-8.64.01-17.28 0-25.92 0-1.94-.02-1.96-1.97-1.96-5.04-.01-10.08 0-15.12 0-1.92 0-3.84.02-5.76-.01-.87-.01-1.38.21-1.29 1.21.05.55.01 1.12.01 1.68 0 11.04 0 22.08-.01 33.12 0 .73.17 1.52-.48 2.56-2.78-5.17-6.65-8.74-11.72-10.9-4.95-2.11-10.13-3.08-15.65-2.92 0 4.74.04 9.22-.02 13.69-.02 1.14.46 1.46 1.47 1.73 2.51.65 4.08 2.39 4.94 4.8.51 1.44.87 2.91 1 4.43.16 1.86.17 1.89-1.65 1.9-5.68.02-11.36.01-17.04.01-.32 0-.64-.01-.96-.03-.58-.03-.79-.33-.81-.92-.16-4.98 2.62-8.97 7.4-10.44.98-.3 1.19-.79 1.17-1.7-.05-2.48.01-4.96-.03-7.44-.03-1.98.18-3.97-.18-6.12-9.26.5-17.69 2.79-24.51 10.14.32-3.52 1.81-6.31 2.11-9.49-8.07 0-15.9-.01-23.73 0-2.07 0-2.05.03-2.29 2.1-.91 7.78-1.83 15.56-2.77 23.34-.17 1.37-.1 2.67.28 4.02 2.87 10.31 5.68 20.64 8.52 30.96l1.44 5.2c.14 0 .28 0 .42-.01 2.88-10.15 5.73-20.29 8.62-30.59zm-13.11 31.48c-.22-.76-.32-1.14-.43-1.51-3.31-11.76-6.61-23.52-9.92-35.28-2.62-9.3-5.25-18.6-7.88-27.89-.52-1.82-.53-1.83-2.4-1.84-6.4-.01-12.79.04-19.19-.03-1.36-.01-1.77.53-1.97 1.75-1.37 8.36-2.79 16.7-4.2 25.05-.14.8-.07 1.58.08 2.37 2.2 11.61 4.38 23.23 6.56 34.85.09.49.1 1.04.72 1.32 2.83-13.2 5.65-26.31 8.48-39.5.65.38.68.79.76 1.17 1.14 5.55 2.27 11.11 3.41 16.66 1.44 7.04 2.88 14.08 4.33 21.12.35 1.72.37 1.73 2.17 1.74 3.04.02 6.08 0 9.12 0 3.35.02 6.7.02 10.36.02zm113.22-9.12c0 2.48-.01 4.95 0 7.43.01 2.28.01 2.27 2.4 2.3 2.32.03 4.63-.12 6.92-.53 7.18-1.3 12.98-4.76 17.05-10.91 1.77-2.68 3.04-5.61 3.92-8.7 2.15-7.59 2.26-15.29 1.19-23.04-.64-4.62-1.82-9.07-4.06-13.2-2.49-4.59-6.02-8.03-10.95-9.9-4.84-1.84-9.85-1.74-14.89-1.2-1.17.13-1.6.59-1.58 1.81.06 5.27.06 10.55 0 15.82-.01 1.1.37 1.55 1.42 1.76 3 .62 4.6 2.69 5.31 5.53.33 1.32.56 2.66.56 4.03 0 3.2-.01 6.39-.01 9.59 0 1.45-.26 2.87-.63 4.26-.73 2.75-2.36 4.78-5.23 5.33-1.34.26-1.43.92-1.41 1.96.01 2.55-.01 5.1-.01 7.66zm-194.7-57.39c.65 2.4 1.18 4.4 1.73 6.39 5.28 19.42 10.56 38.84 15.85 58.26.5 1.85.52 1.86 2.37 1.87 5.52.01 11.04.01 16.56-.01.52 0 1.12.2 1.53-.33.02-.1.06-.18.05-.25-3.97-21.44-7.95-42.88-11.89-64.33-.24-1.3-.85-1.62-2.09-1.61-6.56.05-13.12.02-19.68.02-1.36-.01-2.71-.01-4.43-.01zm235 8.35c0-.93.01-1.86 0-2.79-.05-3.33.53-2.99-3.11-3.01-3.01-.02-2.54-.01-2.55 2.61-.01 19.03-.03 38.06.01 57.1.01 4.49-1 3.78 4.17 3.88 1.18.02 1.57-.47 1.48-1.56-.05-.56-.01-1.12-.01-1.68 0-15.27.16-30.55-.12-45.82-.07-3.67 1.33-5.84 3.96-7.76 1.23-.9 2.48-1.76 3.87-2.39 1.61-.73 3.29-1.24 5.08-1.27 3.4-.05 5.61 1.64 6.42 4.93.47 1.88.54 3.79.53 5.72-.01 15.67 0 31.35 0 47.02 0 .64 0 1.28.02 1.92.02.58.35.86.91.87 1.28.01 2.56.01 3.84 0 .56 0 .89-.3.91-.88.02-.56.02-1.12.02-1.68 0-15.67.13-31.35-.11-47.02-.05-3.07 1.04-4.95 3.17-6.67 1.12-.91 2.27-1.77 3.54-2.46 1.85-1.01 3.81-1.66 5.93-1.74 3.63-.13 5.94 1.65 6.71 5.18.41 1.88.5 3.8.5 5.72-.01 15.19 0 30.39 0 45.58 0 4.3 0 4.3 4.31 3.99.08-.01.16-.01.24-.01.8.03 1.18-.35 1.14-1.15-.02-.4 0-.8 0-1.2v-47.74c0-2.25-.18-4.48-.75-6.65-1.45-5.55-5.76-8.47-11.49-7.81-4.74.55-8.61 2.76-11.91 6.12-.59.6-1.02 1.42-1.96 1.79-.18-.46-.31-.83-.45-1.19-1.97-5.17-5.54-7.33-11.02-6.72-3.35.37-6.31 1.65-9.02 3.6-1.37.95-2.52 2.18-4.26 3.17zm86.91 50.73c.17 1.4.36 2.79.51 4.19.4 3.7.16 2.91 3.39 2.97 1.86.04 1.86-.02 1.85-1.79-.03-13.12-.07-26.24-.08-39.36 0-2.96-.1-5.92-.41-8.86-.29-2.72-.82-5.38-1.95-7.88-1.44-3.18-3.85-5.25-7.26-6.1-3.32-.83-6.65-.76-9.98-.08-5.51 1.13-8.9 4.44-10.16 9.91-.32 1.4-.56 2.83-.68 4.26-.33 4.22-.28 3.34 3.02 3.52.32.02.64-.01.96.03 1.29.17 1.67-.41 1.63-1.65-.08-2.25.19-4.48.98-6.61 1.34-3.64 4.82-5.64 9.46-5.5 4.04.12 6.1 1.79 7.31 5.97.22.76.38 1.55.52 2.34.7 3.88.5 7.81.65 11.72.06 1.58-.41 2.43-1.91 3.1-3.35 1.5-6.62 3.19-9.88 4.91-3.55 1.87-6.9 4.04-9.74 6.92-4.75 4.83-5.93 14.22-2.5 20.06.44.75.96 1.48 1.55 2.13 4.47 4.97 12.56 5.38 18.06.93 1.76-1.42 3.1-3.19 4.66-5.13zm73.99-24.89c.07 5.43-.2 10.87.44 16.29.35 2.95.89 5.85 2.03 8.6 1.91 4.59 5.38 7.25 10.3 7.94 1.98.28 3.98.31 5.98.12 6.77-.64 10.67-3.94 12.34-10.49.73-2.89.95-5.83.91-8.8-.05-3.38.5-3.12-3.02-3.12-3.13 0-2.76-.28-2.78 2.87-.02 3.36-.08 6.71-1.23 9.94-.9 2.55-2.62 4.15-5.19 4.86-2.12.58-4.27.6-6.4.09-2.59-.62-4.39-2.2-5.46-4.62-.68-1.55-1.06-3.17-1.32-4.84-.88-5.64-.6-11.32-.65-17-.02-3.36-.22-3 2.92-3.01 6.96-.01 13.91 0 20.87-.01 2.18 0 2.18-.02 2.25-2.25.15-4.32.07-8.64-.44-12.93-.35-3.02-.92-6-2.15-8.82-1.58-3.64-4.29-5.86-8.13-6.8-2.68-.66-5.39-.66-8.1-.37-5.22.55-8.94 3.19-10.88 8.15-1.02 2.62-1.52 5.37-1.86 8.16-.63 5.32-.36 10.69-.43 16.04zm87.16-32.53c-.55.04-1.51.06-2.46.17-6.37.75-10.67 5.01-11.44 11.34-.59 4.85.64 9.17 3.73 12.98 2.03 2.5 4.48 4.55 6.91 6.63 3.15 2.71 6.48 5.21 9.35 8.24 2.44 2.58 4.48 5.42 5.34 8.95 1.09 4.47-.36 9.01-3.56 11.19-4.95 3.36-12.53 1.72-15.63-3.38-1.31-2.15-1.95-4.53-2.37-6.99-.56-3.22-.58-3.21-3.79-2.16-.15.05-.3.12-.46.14-.95.13-1.08.71-.98 1.55.45 3.79 1.48 7.36 3.7 10.51 2.31 3.29 5.46 5.37 9.41 6.09 3.01.55 6.05.49 9.03-.32 5.56-1.51 9.02-5.07 9.96-10.76.83-5.07-.12-9.87-3.2-14.11-1.84-2.53-4.01-4.76-6.36-6.83-3.95-3.49-7.89-7-11.79-10.56-3.33-3.05-4.38-6.96-3.9-11.33.28-2.56 1.56-4.51 3.86-5.71 2.43-1.26 5.02-1.55 7.69-.96 2.79.62 4.63 2.39 5.77 4.96.98 2.22 1.41 4.57 1.51 6.99.04.86.26 1.29 1.32 1.04 3.28-.77 3.29-.72 2.9-4.09-.03-.24-.04-.48-.07-.72-1.23-8.28-6.21-12.84-14.47-12.86zm-139.62 31.07c.01 7.2 0 14.4.01 21.6 0 2.24.11 4.46.74 6.65.89 3.09 2.95 4.84 5.98 5.6 2.37.59 4.76.47 7.15.06 2.12-.36 2.12-.34 2.12-2.58v-.48c-.05-1.77-.06-1.81-1.72-1.54-1.27.21-2.54.32-3.82.21-2.42-.2-3.59-1.24-4.16-3.59-.44-1.8-.49-3.64-.48-5.48v-44.15c0-.32.03-.64 0-.96-.13-1.14.36-1.55 1.51-1.52 2.32.07 4.64.02 6.96.02 2.41-.01 2.35-.01 2.33-2.37-.01-1.14-.35-1.55-1.52-1.52-2.48.07-4.96.04-7.44.02-1.79-.02-1.83-.04-1.83-1.89-.02-4.96-.01-9.92-.01-14.88 0-3.58 0-3.58-3.53-3.55-2.25.02-2.26.02-2.27 2.18-.01 5.04.01 10.08-.01 15.12-.01 3.38.33 3-3.14 3.03-1.2.01-2.4-.02-3.6.01-1.63.04-1.63.06-1.64 1.85-.01 1.91.02 1.97 1.74 2 1.68.03 3.36.07 5.04-.01 1.29-.06 1.72.51 1.61 1.7-.04.48-.01.96-.01 1.44-.01 7.67-.01 15.35-.01 23.03zm28.8.04c.01 7.28 0 14.56.01 21.84 0 2.32.16 4.62.91 6.86.81 2.38 2.37 3.92 4.7 4.76 2.48.89 5.01.9 7.57.52 2.95-.44 2.96-.42 2.79-3.44 0-.08-.01-.16 0-.24.05-.92-.31-1.34-1.28-1.12-1.41.33-2.85.43-4.29.31-2.42-.21-3.56-1.26-4.13-3.62-.46-1.89-.48-3.8-.48-5.72v-43.67c0-.4.04-.8 0-1.2-.13-1.19.44-1.51 1.55-1.48 2.4.06 4.8.03 7.2.01 2.08-.01 2.08-.02 2.03-2.16-.04-1.66-.04-1.68-1.77-1.7-2.08-.02-4.16 0-6.24-.01-2.95-.02-2.76.34-2.76-2.65-.01-4.48 0-8.96 0-13.44 0-4.63 0-4.61-4.53-4.25-.89.07-1.34.34-1.27 1.27.04.56 0 1.12 0 1.68 0 5.2.01 10.4-.01 15.6-.01 1.72-.05 1.75-1.73 1.78-1.76.03-3.52.05-5.28 0-1.06-.03-1.45.43-1.37 1.43.03.32.03.64 0 .96-.12 1.16.41 1.55 1.54 1.51 1.84-.07 3.68 0 5.52-.02.88-.01 1.37.3 1.32 1.25-.03.56 0 1.12 0 1.68v23.26zm73.37-22.08v-3.9c0-4.56 0-4.53-4.64-4.16-.95.08-1.27.44-1.23 1.32.02.48 0 .96 0 1.44v58.07c0 3.1-.31 2.78 2.86 2.79 3.42 0 3 .27 3-2.9.01-15.04 0-30.08.01-45.11 0-1.11-.08-2.2.61-3.23 2.92-4.31 6.83-6.88 12.13-7.08 1.03-.04 2.06-.01 3.15-.01.34-1.39.17-2.74.17-4.08.01-1.83-.09-1.93-1.9-1.79-4.24.34-7.83 2.13-10.88 5.03-1.02.98-1.91 2.1-3.28 3.61z"/>
  <path class="st1" d="M276.47 555.83c-2.9 10.3-5.74 20.44-8.59 30.58-.14 0-.28 0-.42.01l-1.44-5.2c-2.83-10.32-5.64-20.65-8.52-30.96-.38-1.35-.44-2.65-.28-4.02.94-7.78 1.86-15.56 2.77-23.34.24-2.07.22-2.1 2.29-2.1 7.83-.01 15.66 0 23.73 0-.29 3.18-1.78 5.97-2.11 9.49 6.82-7.35 15.25-9.64 24.51-10.14.35 2.15.15 4.14.18 6.12.04 2.48-.02 4.96.03 7.44.02.91-.2 1.41-1.17 1.7-4.79 1.46-7.56 5.45-7.4 10.44.02.58.23.89.81.92.32.01.64.03.96.03 5.68 0 11.36.01 17.04-.01 1.82-.01 1.81-.04 1.65-1.9-.14-1.52-.49-2.99-1-4.43-.86-2.41-2.43-4.15-4.94-4.8-1.01-.26-1.49-.59-1.47-1.73.06-4.47.02-8.95.02-13.69 5.52-.15 10.7.81 15.65 2.92 5.07 2.16 8.94 5.74 11.72 10.9.65-1.04.47-1.83.48-2.56.01-11.04.01-22.08.01-33.12 0-.56.05-1.12-.01-1.68-.1-1 .41-1.22 1.29-1.21 1.92.03 3.84.01 5.76.01 5.04 0 10.08-.01 15.12 0 1.94.01 1.96.03 1.97 1.96.01 8.64 0 17.28 0 25.92v2.16c2.45-1.28 4.48-2.73 6.87-3.33.48.65.29 1.3.29 1.9.02 4.56-.01 9.12.03 13.68.01 1.05-.09 1.78-1.37 2.06-3.1.68-4.8 2.86-5.3 5.83-.96 5.63-.96 11.31.05 16.94.53 2.96 2.31 5.09 5.3 5.92.91.25 1.33.57 1.32 1.58-.05 5.44-.03 10.88-.05 16.32 0 .14-.13.28-.28.6-5.15-1.2-9.52-3.84-13.36-7.7-1.2 2.34-2.34 4.45-3.37 6.6-.44.92-.99 1.29-2.03 1.27-3.6-.06-7.2-.07-10.8 0-1.23.02-1.46-.51-1.44-1.58.05-2.46.02-4.92.02-7.27-.58-.27-.82-.07-1.03.18-3.9 4.61-9.1 6.92-14.81 8.26-3.36.78-6.78 1.14-10.22 1.22-1.75.04-1.78.03-1.78-1.61-.02-4.08.02-8.16-.03-12.24-.01-1.06.28-1.51 1.39-1.75 3.15-.68 5.32-2.56 5.95-5.82.24-1.25.83-1.49 1.96-1.48 5.44.07 10.88.08 16.32.1 2.23.01 2.23-.01 2.25-2.19.04-3.95.04-3.95-3.85-3.95h-37.09c.1 3.5.65 6.68 2.38 9.55 1.16 1.93 2.87 3.23 5.05 3.79.87.22 1.17.61 1.16 1.47-.03 4.32-.03 8.64.01 12.96.01 1.02-.44 1.19-1.32 1.13-6.14-.43-12.03-1.74-17.34-4.98-6.54-4-10.09-10.07-11.74-17.39-.56-2.5-.92-5.03-1.04-7.59-.05-.65.19-1.42-.74-2.19zM263.36 587.31h-10.37c-3.04 0-6.08.01-9.12 0-1.8-.01-1.81-.03-2.17-1.74-1.45-7.04-2.89-14.08-4.33-21.12-1.14-5.55-2.27-11.11-3.41-16.66-.08-.38-.11-.8-.76-1.17-2.83 13.2-5.65 26.3-8.48 39.5-.62-.28-.63-.83-.72-1.32-2.18-11.62-4.36-23.23-6.56-34.85-.15-.8-.22-1.57-.08-2.37 1.42-8.35 2.84-16.69 4.2-25.05.2-1.23.6-1.77 1.97-1.75 6.4.07 12.79.03 19.19.03 1.87 0 1.89.02 2.4 1.84 2.63 9.29 5.26 18.59 7.88 27.89 3.31 11.76 6.61 23.52 9.92 35.28.12.36.23.73.44 1.49zM376.58 578.19c0-2.56.02-5.11-.01-7.67-.01-1.04.08-1.7 1.41-1.96 2.88-.55 4.5-2.58 5.23-5.33.37-1.39.63-2.81.63-4.26 0-3.2 0-6.39.01-9.59 0-1.37-.23-2.71-.56-4.03-.72-2.85-2.31-4.91-5.31-5.53-1.05-.22-1.43-.66-1.42-1.76.06-5.27.06-10.55 0-15.82-.01-1.22.42-1.69 1.58-1.81 5.05-.55 10.05-.64 14.89 1.2 4.93 1.87 8.47 5.31 10.95 9.9 2.24 4.13 3.42 8.59 4.06 13.2 1.08 7.75.96 15.45-1.19 23.04-.88 3.09-2.14 6.02-3.92 8.7-4.07 6.15-9.87 9.61-17.05 10.91-2.29.41-4.59.56-6.92.53-2.38-.03-2.39-.02-2.4-2.3.01-2.47.02-4.94.02-7.42zM181.88 520.8h4.41c6.56 0 13.12.03 19.68-.02 1.24-.01 1.86.32 2.09 1.61 3.94 21.45 7.92 42.89 11.89 64.33.01.07-.03.16-.05.25-.41.53-1.01.33-1.53.33-5.52.01-11.04.02-16.56.01-1.85 0-1.87-.02-2.37-1.87-5.29-19.42-10.57-38.84-15.85-58.26-.53-1.99-1.06-3.98-1.71-6.38z"/>
  <path class="st2" d="M416.88 529.15c1.74-.98 2.88-2.21 4.25-3.2 2.71-1.96 5.67-3.23 9.02-3.6 5.48-.61 9.05 1.56 11.02 6.72.14.36.27.72.45 1.19.94-.37 1.37-1.19 1.96-1.79 3.3-3.35 7.18-5.57 11.91-6.12 5.72-.66 10.04 2.26 11.49 7.81.57 2.18.75 4.41.75 6.65v47.74c0 .4-.02.8 0 1.2.04.81-.34 1.19-1.14 1.15-.08 0-.16 0-.24.01-4.31.31-4.31.31-4.31-3.99 0-15.19-.01-30.39 0-45.58 0-1.93-.08-3.84-.5-5.72-.77-3.52-3.08-5.31-6.71-5.18-2.11.08-4.08.72-5.93 1.74-1.27.69-2.41 1.56-3.54 2.46-2.13 1.73-3.21 3.6-3.17 6.67.24 15.67.11 31.34.11 47.02 0 .56 0 1.12-.02 1.68-.02.58-.34.87-.91.88-1.28.01-2.56.01-3.84 0-.56 0-.9-.29-.91-.87-.02-.64-.02-1.28-.02-1.92 0-15.67-.01-31.35 0-47.02 0-1.93-.07-3.84-.53-5.72-.82-3.29-3.02-4.99-6.42-4.93-1.79.03-3.46.54-5.08 1.27-1.39.63-2.64 1.49-3.87 2.39-2.64 1.93-4.03 4.1-3.96 7.76.28 15.27.12 30.54.12 45.82 0 .56-.04 1.12.01 1.68.09 1.1-.3 1.59-1.48 1.56-5.17-.11-4.16.61-4.17-3.88-.04-19.03-.02-38.06-.01-57.1 0-2.63-.46-2.63 2.55-2.61 3.63.02 3.05-.32 3.11 3.01.03.96.01 1.89.01 2.82zM503.79 579.88c-1.56 1.94-2.9 3.71-4.67 5.14-5.5 4.44-13.58 4.04-18.06-.93-.58-.65-1.1-1.38-1.55-2.13-3.43-5.85-2.25-15.23 2.5-20.06 2.84-2.89 6.19-5.05 9.74-6.92 3.25-1.71 6.52-3.41 9.88-4.91 1.5-.67 1.97-1.52 1.91-3.1-.15-3.91.05-7.84-.65-11.72-.14-.78-.3-1.57-.52-2.34-1.21-4.18-3.27-5.85-7.31-5.97-4.64-.14-8.12 1.86-9.46 5.5-.78 2.13-1.06 4.35-.98 6.61.05 1.24-.34 1.82-1.63 1.65-.32-.04-.64-.01-.96-.03-3.3-.18-3.35.7-3.02-3.52.11-1.43.36-2.86.68-4.26 1.25-5.47 4.65-8.78 10.16-9.91 3.33-.68 6.66-.75 9.98.08 3.41.85 5.82 2.92 7.26 6.1 1.13 2.5 1.66 5.17 1.95 7.88.32 2.95.41 5.9.41 8.86.01 13.12.05 26.24.08 39.36 0 1.76 0 1.82-1.85 1.79-3.23-.06-2.99.73-3.39-2.97-.14-1.41-.33-2.8-.5-4.2zm-.55-25.95c-.56-.23-.96.13-1.36.34-3.44 1.87-6.87 3.74-10.29 5.63-1.54.85-2.94 1.91-4.23 3.12-1.92 1.81-3.22 3.97-3.63 6.59-.35 2.22-.37 4.46-.05 6.69.53 3.66 3.24 6.36 6.74 6.78 3.09.36 5.86-.4 8.24-2.44 1.47-1.26 2.67-2.73 3.75-4.33.79-1.17 1.13-2.39 1.12-3.82-.05-5.51-.01-11.02-.03-16.53 0-.68.22-1.42-.26-2.03zM577.78 554.99c.07-5.35-.2-10.72.44-16.05.33-2.78.83-5.53 1.86-8.16 1.94-4.96 5.66-7.6 10.88-8.15 2.71-.28 5.42-.29 8.1.37 3.83.95 6.55 3.17 8.13 6.8 1.23 2.82 1.79 5.8 2.15 8.82.5 4.3.59 8.61.44 12.93-.08 2.23-.07 2.25-2.25 2.25-6.96.01-13.91 0-20.87.01-3.13.01-2.94-.35-2.92 3.01.04 5.67-.24 11.35.65 17 .26 1.67.64 3.29 1.32 4.84 1.07 2.43 2.87 4.01 5.46 4.62 2.13.51 4.28.5 6.4-.09 2.57-.71 4.29-2.31 5.19-4.86 1.15-3.23 1.21-6.58 1.23-9.94.02-3.15-.35-2.87 2.78-2.87 3.52 0 2.97-.26 3.02 3.12.04 2.97-.18 5.92-.91 8.8-1.66 6.56-5.57 9.85-12.34 10.49-2 .19-4 .16-5.98-.12-4.92-.69-8.39-3.34-10.3-7.94-1.14-2.75-1.69-5.65-2.03-8.6-.65-5.41-.38-10.85-.45-16.28zm15.9-4.64c2.88 0 5.75.02 8.63-.01 1.67-.02 1.7-.05 1.71-1.77.01-2.48.06-4.96-.07-7.43-.15-2.87-.38-5.73-1.26-8.5-1.03-3.23-3.27-5.03-6.52-5.62-1.5-.27-3.03-.22-4.54.03-2.92.48-4.97 2.06-6.03 4.85-.49 1.27-.91 2.55-1.15 3.9-.74 4.27-.79 8.58-.82 12.89-.01 1.21.39 1.71 1.66 1.67 2.8-.06 5.59-.01 8.39-.01zM664.94 522.46c8.26.02 13.25 4.58 14.47 12.88.04.24.04.48.07.72.39 3.37.37 3.33-2.9 4.09-1.06.25-1.28-.18-1.32-1.04-.1-2.42-.53-4.76-1.51-6.99-1.13-2.56-2.98-4.34-5.77-4.96-2.67-.59-5.25-.3-7.69.96-2.3 1.19-3.58 3.15-3.86 5.71-.47 4.38.57 8.28 3.9 11.33 3.89 3.56 7.83 7.07 11.79 10.56 2.35 2.07 4.51 4.3 6.36 6.83 3.09 4.25 4.03 9.04 3.2 14.11-.93 5.69-4.4 9.25-9.96 10.76-2.98.81-6.02.87-9.03.32-3.95-.72-7.1-2.79-9.41-6.09-2.21-3.15-3.25-6.73-3.7-10.51-.1-.84.03-1.42.98-1.55.16-.02.31-.09.46-.14 3.21-1.06 3.23-1.06 3.79 2.16.43 2.46 1.07 4.84 2.37 6.99 3.1 5.1 10.69 6.74 15.63 3.38 3.2-2.17 4.65-6.72 3.56-11.19-.86-3.53-2.9-6.37-5.34-8.95-2.86-3.03-6.2-5.53-9.35-8.24-2.42-2.09-4.88-4.13-6.91-6.63-3.09-3.81-4.32-8.13-3.73-12.98.77-6.33 5.06-10.59 11.44-11.34.95-.13 1.91-.16 2.46-.19zM525.32 553.53V530.5c0-.48-.04-.96.01-1.44.11-1.2-.32-1.76-1.61-1.7-1.68.08-3.36.04-5.04.01-1.72-.03-1.76-.09-1.74-2 .01-1.79.01-1.81 1.64-1.85 1.2-.03 2.4 0 3.6-.01 3.47-.03 3.13.35 3.14-3.03.01-5.04 0-10.08.01-15.12 0-2.16.02-2.16 2.27-2.18 3.53-.03 3.53-.03 3.53 3.55 0 4.96-.01 9.92.01 14.88.01 1.85.04 1.87 1.83 1.89 2.48.02 4.96.06 7.44-.02 1.16-.03 1.51.39 1.52 1.52.02 2.35.08 2.36-2.33 2.37-2.32.01-4.64.05-6.96-.02-1.15-.03-1.64.38-1.51 1.52.03.32 0 .64 0 .96v44.15c0 1.84.05 3.68.48 5.48.57 2.34 1.74 3.38 4.16 3.59 1.28.11 2.55-.01 3.82-.21 1.66-.27 1.67-.23 1.72 1.54v.48c0 2.24 0 2.22-2.12 2.58-2.39.41-4.77.53-7.15-.06-3.03-.75-5.09-2.51-5.98-5.6-.63-2.19-.74-4.41-.74-6.65v-21.6zM554.12 553.57V530.3c0-.56-.03-1.12 0-1.68.04-.95-.44-1.26-1.32-1.25-1.84.02-3.68-.05-5.52.02-1.13.04-1.66-.35-1.54-1.51.03-.32.03-.64 0-.96-.08-1 .31-1.46 1.37-1.43 1.76.05 3.52.04 5.28 0 1.68-.03 1.72-.06 1.73-1.78.02-5.2.01-10.4.01-15.6 0-.56.03-1.12 0-1.68-.06-.94.38-1.2 1.27-1.27 4.53-.36 4.53-.38 4.53 4.25v13.44c0 2.98-.19 2.63 2.76 2.65 2.08.01 4.16-.02 6.24.01 1.73.02 1.73.04 1.77 1.7.05 2.14.05 2.15-2.03 2.16-2.4.01-4.8.04-7.2-.01-1.11-.03-1.68.3-1.55 1.48.04.4 0 .8 0 1.2v43.67c0 1.92.02 3.84.48 5.72.57 2.36 1.72 3.41 4.13 3.62 1.44.13 2.88.02 4.29-.31.97-.23 1.33.2 1.28 1.12v.24c.16 3.02.16 3-2.79 3.44-2.57.38-5.1.37-7.57-.52-2.33-.84-3.89-2.37-4.7-4.76-.76-2.24-.91-4.53-.91-6.86-.01-7.28 0-14.55-.01-21.83zM627.49 531.49c1.37-1.52 2.27-2.63 3.29-3.61 3.05-2.9 6.64-4.69 10.88-5.03 1.81-.14 1.91-.05 1.9 1.79 0 1.34.17 2.7-.17 4.08-1.09 0-2.12-.03-3.15.01-5.3.2-9.21 2.78-12.13 7.08-.7 1.03-.61 2.12-.61 3.23 0 15.04 0 30.08-.01 45.11 0 3.16.42 2.9-3 2.9-3.18 0-2.86.32-2.86-2.79-.01-19.36 0-38.71 0-58.07 0-.48.02-.96 0-1.44-.04-.88.28-1.24 1.23-1.32 4.64-.37 4.64-.4 4.64 4.16-.01 1.11-.01 2.22-.01 3.9z"/>
  <path class="st0" d="M503.24 553.93c.48.61.26 1.35.26 2.04.02 5.51-.02 11.02.03 16.53.01 1.42-.33 2.65-1.12 3.82-1.08 1.6-2.28 3.07-3.75 4.33-2.39 2.04-5.15 2.8-8.24 2.44-3.5-.41-6.21-3.11-6.74-6.78-.32-2.22-.3-4.47.05-6.69.41-2.61 1.71-4.78 3.63-6.59 1.28-1.21 2.69-2.27 4.23-3.12 3.42-1.9 6.85-3.77 10.29-5.63.4-.23.8-.58 1.36-.35zM593.68 550.35c-2.8 0-5.59-.05-8.39.02-1.27.03-1.67-.46-1.66-1.67.02-4.31.08-8.62.82-12.89.23-1.34.66-2.63 1.15-3.9 1.07-2.79 3.12-4.37 6.03-4.85 1.51-.25 3.04-.3 4.54-.03 3.25.59 5.49 2.39 6.52 5.62.88 2.77 1.11 5.64 1.26 8.5.13 2.47.09 4.95.07 7.43-.01 1.72-.04 1.75-1.71 1.77-2.88.02-5.75 0-8.63 0z"/>
</svg>
